@startuml
skinparam classAttributeIconSize 0

abstract class Персонаж {
  + имя : String
}

class Буратино extends Персонаж {
  - ключ : Ключ
  + найтиОбъект(название : String) : Объект
  + открытьДверь(дверь : Дверь)
  + убежать()
  + скрытьКлюч()
}

class КарабасБарабас extends Персонаж {
  + догнать(цель : Персонаж)
  + перехватитьКлюч(держатель : Персонаж)
}

abstract class Объект {
  + название : String
}

class Ключ extends Объект {
  + compare(ключДляСравнения: Ключ) : bool
}

class Дверь extends Объект {
  - замок : Ключ
  - скрыта : bool
  - найдена : bool
  - открыта : bool
  + обнаружить()
  + открыть(входящийКлюч : Ключ) : bool
}

' Связи
Буратино "1" o-- "0..1" Ключ : имеет >
Дверь "1" *-- "1" Ключ : замок >
КарабасБарабас ..> Персонаж : догнать / перехватить >
Буратино ..> Дверь : открывает >
Буратино ..> Объект : находит >

@enduml
